<?xml version="1.0" encoding="UTF-8" standalone="no"?><!DOCTYPE svg PUBLIC "-//W3C//DTD SVG 1.1//EN" "http://www.w3.org/Graphics/SVG/1.1/DTD/svg11.dtd"><svg width="100%" height="100%" viewBox="0 0 6 6" version="1.1" xmlns="http://www.w3.org/2000/svg" xmlns:xlink="http://www.w3.org/1999/xlink" xml:space="preserve" xmlns:serif="http://www.serif.com/" style="fill-rule:evenodd;clip-rule:evenodd;stroke-linejoin:round;stroke-miterlimit:2;"><rect id="icon-svg" x="0" y="0.042" width="5.76" height="4.955" style="fill:none;"/><g><circle cx="0.598" cy="0.942" r="0.414" style="fill:#093a52;"/><path d="M5.165,3.099l0.339,0.211c0.108,0.074 0.105,0.239 0,0.31l-1.852,1.152c-0.061,0.035 -0.133,0.034 -0.193,0l-1.852,-1.152c-0.105,-0.072 -0.106,-0.237 0,-0.31l0.339,-0.211l0.346,0.215l-0.243,0.151l1.506,0.937l1.506,-0.937l-0.242,-0.151l0.346,-0.215Z" style="fill:#5fa1da;"/><path d="M1.941,2.156l0.346,0.215l-0.238,0.147l1.506,0.937l1.506,-0.937l-0.237,-0.147l0.346,-0.215l0.334,0.207c0.105,0.072 0.106,0.238 0,0.31l-1.852,1.152c-0.061,0.035 -0.133,0.034 -0.193,0l-1.852,-1.152c-0.108,-0.074 -0.105,-0.238 0,-0.31l0.334,-0.207Z" style="fill:#48c4d7;"/><path d="M3.539,0.244c-0.057,0.008 -0.042,0.006 -0.08,0.027l-1.071,0.666c-0.119,0.082 -0.097,0.29 0.047,0.331c0.047,0.013 0.08,0.016 0.146,-0.021l0.974,-0.606l1.506,0.937l-1.506,0.936l-2.031,-1.263c0,0 -0.09,-0.044 -0.163,-0.016c-0.114,0.044 -0.15,0.221 -0.057,0.305c0.011,0.011 0.014,0.012 0.027,0.021l2.128,1.324c0.051,0.028 0.11,0.035 0.163,0.015c0.014,-0.006 0.017,-0.008 0.03,-0.015l1.852,-1.152c0.105,-0.073 0.107,-0.236 0,-0.31l-1.852,-1.152c-0.063,-0.035 -0.068,-0.029 -0.113,-0.027Z" style="fill:#093a52;"/></g></svg>